<?xml version="1.0" encoding="UTF-8" standalone="no"?>
<svg
   xmlns:dc="http://purl.org/dc/elements/1.1/"
   xmlns:cc="http://creativecommons.org/ns#"
   xmlns:rdf="http://www.w3.org/1999/02/22-rdf-syntax-ns#"
   xmlns:svg="http://www.w3.org/2000/svg"
   xmlns="http://www.w3.org/2000/svg"
   id="svg8"
   version="1.1"
   viewBox="0 0 139.07087 51.004294"
   height="51.004295mm"
   width="139.07088mm">
  <defs
     id="defs2" />
  <metadata
     id="metadata5">
    <rdf:RDF>
      <cc:Work
         rdf:about="">
        <dc:format>image/svg+xml</dc:format>
        <dc:type
           rdf:resource="http://purl.org/dc/dcmitype/StillImage" />
        <dc:title></dc:title>
      </cc:Work>
    </rdf:RDF>
  </metadata>
  <g
     transform="translate(-27.289059,-11.394554)"
     id="layer1">
    <g
       transform="translate(0.23385429)"
       id="g1413">
      <rect
         style="opacity:1;vector-effect:none;fill:#639c91;fill-opacity:0.58450706;stroke:#000000;stroke-width:1;stroke-linecap:round;stroke-linejoin:miter;stroke-miterlimit:4;stroke-dasharray:none;stroke-dashoffset:0;stroke-opacity:1"
         id="rect1198"
         width="64"
         height="16"
         x="27.555204"
         y="16.393496" />
      <path
         d="m 27.555205,16.393495 v 16 m 2.645833,-16 v 16 m 2.645833,-16 v 16 m 2.645834,-16 v 16 m 2.645833,-16 v 16 m 2.645833,-16 v 16 m 2.645833,-16 v 16 m 2.645834,-16 v 16 m 2.645833,-16 v 16 m 2.645833,-16 v 16 m 2.645833,-16 v 16 m 2.645834,-16 v 16 m 2.645833,-16 v 16 m 2.645833,-16 v 16 m 2.645834,-16 v 16 m 2.645833,-16 v 16 m 2.645833,-16 v 16 m 2.645833,-16 v 16 m 2.645834,-16 v 16 m 2.645833,-16 v 16 m 2.645833,-16 v 16 m 2.645833,-16 v 16 m 2.645834,-16 v 16 m 2.645833,-16 v 16 m 2.645833,-16 v 16 m -63.499998,-16 h 63.999998 m -63.999998,2.645833 h 63.999998 m -63.999998,2.645834 h 63.999998 m -63.999998,2.645833 h 63.999998 m -63.999998,2.645833 h 63.999998 m -63.999998,2.645833 h 63.999998 m -63.999998,2.645834 h 63.999998"
         style="fill:none;stroke:#000000;stroke-width:0.132;stroke-miterlimit:4;stroke-dasharray:none;stroke-opacity:1"
         id="path1204" />
    </g>
    <g
       transform="translate(0,0.18750381)"
       id="g1395">
      <rect
         y="45.711346"
         x="27.789059"
         height="16"
         width="64"
         id="rect1232"
         style="opacity:1;vector-effect:none;fill:#639c91;fill-opacity:0.58450706;stroke:#000000;stroke-width:1;stroke-linecap:round;stroke-linejoin:miter;stroke-miterlimit:4;stroke-dasharray:none;stroke-dashoffset:0;stroke-opacity:1" />
      <path
         id="path1234"
         style="fill:none;stroke:#000000;stroke-width:0.132292px"
         d="m 27.789059,45.836351 v 16 m 2.645833,-16 v 16 m 2.645833,-16 v 16 m 2.645834,-16 v 16 m 2.645833,-16 v 16 m 2.645833,-16 v 16 m 2.645833,-16 v 16 m 2.645834,-16 v 16 m 2.645833,-16 v 16 m 2.645833,-16 v 16 m 2.645833,-16 v 16 m 2.645834,-16 v 16 m 2.645833,-16 v 16 m 2.645833,-16 v 16 m 2.645834,-16 v 16 m 2.645833,-16 v 16 m 2.645833,-16 v 16 m 2.645833,-16 v 16 m 2.645834,-16 v 16 m 2.645833,-16 v 16 m 2.645833,-16 v 16 m 2.645833,-16 v 16 m 2.645834,-16 v 16 m 2.645833,-16 v 16 m 2.645833,-16 v 16 m -63.499998,-16 h 63.999998 m -63.999998,2.645833 h 63.999998 m -63.999998,2.645834 h 63.999998 m -63.999998,2.645833 h 63.999998 m -63.999998,2.645833 h 63.999998 m -63.999998,2.645833 h 63.999998 m -63.999998,2.645834 h 63.999998" />
      <rect
         style="opacity:1;vector-effect:none;fill:#cb9c91;fill-opacity:0.58450706;stroke:#000000;stroke-width:0.60000002;stroke-linecap:round;stroke-linejoin:miter;stroke-miterlimit:4;stroke-dasharray:none;stroke-dashoffset:0;stroke-opacity:1"
         id="rect1212"
         width="2.645833"
         height="2.770834"
         x="27.789059"
         y="59.065514" />
      <rect
         y="56.294682"
         x="27.789059"
         height="2.770834"
         width="2.645833"
         id="rect1214"
         style="opacity:1;vector-effect:none;fill:#cb9c91;fill-opacity:0.58450706;stroke:#000000;stroke-width:0.60000002;stroke-linecap:round;stroke-linejoin:miter;stroke-miterlimit:4;stroke-dasharray:none;stroke-dashoffset:0;stroke-opacity:1" />
      <rect
         style="opacity:1;vector-effect:none;fill:#cb9c91;fill-opacity:0.58450706;stroke:#000000;stroke-width:0.60000002;stroke-linecap:round;stroke-linejoin:miter;stroke-miterlimit:4;stroke-dasharray:none;stroke-dashoffset:0;stroke-opacity:1"
         id="rect1216"
         width="2.645833"
         height="2.770834"
         x="27.789059"
         y="51.003017" />
      <rect
         y="53.773849"
         x="27.789059"
         height="2.770834"
         width="2.645833"
         id="rect1218"
         style="opacity:1;vector-effect:none;fill:#cb9c91;fill-opacity:0.58450706;stroke:#000000;stroke-width:0.60000002;stroke-linecap:round;stroke-linejoin:miter;stroke-miterlimit:4;stroke-dasharray:none;stroke-dashoffset:0;stroke-opacity:1" />
      <rect
         y="45.836349"
         x="27.789059"
         height="2.770834"
         width="2.645833"
         id="rect1220"
         style="opacity:1;vector-effect:none;fill:#cb9c91;fill-opacity:0.58450706;stroke:#000000;stroke-width:0.60000002;stroke-linecap:round;stroke-linejoin:miter;stroke-miterlimit:4;stroke-dasharray:none;stroke-dashoffset:0;stroke-opacity:1" />
      <rect
         style="opacity:1;vector-effect:none;fill:#cb9c91;fill-opacity:0.58450706;stroke:#000000;stroke-width:0.60000002;stroke-linecap:round;stroke-linejoin:miter;stroke-miterlimit:4;stroke-dasharray:none;stroke-dashoffset:0;stroke-opacity:1"
         id="rect1222"
         width="2.645833"
         height="2.770834"
         x="27.789059"
         y="48.232182" />
    </g>
    <g
       style="stroke:#000000;stroke-opacity:1"
       transform="translate(-0.39985238)"
       id="g1255">
      <rect
         y="16.510422"
         x="102.15978"
         height="16"
         width="64"
         id="rect1236"
         style="opacity:1;vector-effect:none;fill:#639c91;fill-opacity:0.58450706;stroke:#000000;stroke-width:1;stroke-linecap:round;stroke-linejoin:miter;stroke-miterlimit:4;stroke-dasharray:none;stroke-dashoffset:0;stroke-opacity:1" />
      <path
         id="path1238"
         style="fill:none;stroke:#000000;stroke-width:0.132292px;stroke-opacity:1"
         d="m 102.15978,16.51042 v 16 m 2.64583,-16 v 16 m 2.64584,-16 v 16 m 2.64583,-16 v 16 m 2.64583,-16 v 16 m 2.64584,-16 v 16 m 2.64583,-16 v 16 m 2.64583,-16 v 16 m 2.64584,-16 v 16 m 2.64583,-16 v 16 m 2.64583,-16 v 16 m 2.64584,-16 v 16 m 2.64583,-16 v 16 m 2.64583,-16 v 16 m 2.64584,-16 v 16 m 2.64583,-16 v 16 m 2.64583,-16 v 16 m 2.64583,-16 v 16 m 2.64584,-16 v 16 m 2.64583,-16 v 16 m 2.64583,-16 v 16 m 2.64584,-16 v 16 m 2.64583,-16 v 16 m 2.64583,-16 v 16 m 2.64584,-16 v 16 m -63.5,-16 h 64 m -64,2.645833 h 64 m -64,2.645834 h 64 m -64,2.645833 h 64 m -64,2.645833 h 64 m -64,2.645833 h 64 m -64,2.645834 h 64" />
      <rect
         y="16.510422"
         x="102.15978"
         height="5.291667"
         width="63.999996"
         id="rect1208"
         style="opacity:1;vector-effect:none;fill:#cb9c91;fill-opacity:0.58450706;stroke:#000000;stroke-width:0.60000002;stroke-linecap:round;stroke-linejoin:miter;stroke-miterlimit:4;stroke-dasharray:none;stroke-dashoffset:0;stroke-opacity:1" />
    </g>
    <path
       d="m 101.75994,16.510427 v 5.891667 m 2.64583,-5.891667 v 5.891667 m 2.64584,-5.891667 v 5.891667 m 2.64583,-5.891667 v 5.891667 m 2.64583,-5.891667 v 5.891667 m 2.64584,-5.891667 v 5.891667 m 2.64583,-5.891667 v 5.891667 m 2.64583,-5.891667 v 5.891667 m 2.64584,-5.891667 v 5.891667 m 2.64583,-5.891667 v 5.891667 m 2.64583,-5.891667 v 5.891667 m 2.64584,-5.891667 v 5.891667 m 2.64583,-5.891667 v 5.891667 m 2.64583,-5.891667 v 5.891667 m 2.64584,-5.891667 v 5.891667 m 2.64583,-5.891667 v 5.891667 m 2.64583,-5.891667 v 5.891667 m 2.64584,-5.891667 v 5.891667 m 2.64583,-5.891667 v 5.891667 m 2.64583,-5.891667 v 5.891667 m 2.64584,-5.891667 v 5.891667 m 2.64583,-5.891667 v 5.891667 m 2.64583,-5.891667 v 5.891667 m 2.64584,-5.891667 v 5.891667 m 2.64583,-5.891667 v 5.891667 m -63.5,-5.891667 h 64.6 m -64.6,2.645833 h 64.6 m -64.6,2.645834 h 64.6"
       style="fill:none;stroke:#000000;stroke-width:0.132292px"
       id="path1315" />
    <g
       id="g1458">
      <rect
         y="45.898849"
         x="101.75993"
         height="16"
         width="64"
         id="rect1240"
         style="opacity:1;vector-effect:none;fill:#639c91;fill-opacity:0.58450706;stroke:#000000;stroke-width:1;stroke-linecap:round;stroke-linejoin:miter;stroke-miterlimit:4;stroke-dasharray:none;stroke-dashoffset:0;stroke-opacity:1" />
      <path
         id="path1242"
         style="fill:none;stroke:#000000;stroke-width:0.132;stroke-miterlimit:4;stroke-dasharray:none"
         d="m 101.75994,45.89885 v 16 m 2.64583,-16 v 16 m 2.64583,-16 v 16 m 2.64584,-16 v 16 m 2.64583,-16 v 16 m 2.64583,-16 v 16 m 2.64584,-16 v 16 m 2.64583,-16 v 16 m 2.64583,-16 v 16 m 2.64584,-16 v 16 m 2.64583,-16 v 16 m 2.64583,-16 v 16 m 2.64584,-16 v 16 m 2.64583,-16 v 16 m 2.64583,-16 v 16 m 2.64584,-16 v 16 m 2.64583,-16 v 16 m 2.64583,-16 v 16 m 2.64584,-16 v 16 m 2.64583,-16 v 16 m 2.64583,-16 v 16 m 2.64583,-16 v 16 m 2.64584,-16 v 16 m 2.64583,-16 v 16 m 2.64583,-16 v 16 m -63.49999,-16 h 63.99999 m -63.99999,2.645833 h 63.99999 m -63.99999,2.645834 h 63.99999 m -63.99999,2.645833 h 63.99999 m -63.99999,2.645833 h 63.99999 m -63.99999,2.645833 h 63.99999 m -63.99999,2.645834 h 63.99999" />
      <path
         d="m 101.75993,45.89885 v 5.891667 m 2.64583,-5.891667 v 5.891667 m 2.64584,-5.891667 v 5.891667 m 2.64583,-5.891667 v 5.891667 m 2.64583,-5.891667 v 5.891667 m 2.64584,-5.891667 v 5.891667 m 2.64583,-5.891667 v 5.891667 m 2.64583,-5.891667 v 5.891667 m 2.64584,-5.891667 v 5.891667 m 2.64583,-5.891667 v 5.891667 m 2.64583,-5.891667 v 5.891667 m 2.64584,-5.891667 v 5.891667 m 2.64583,-5.891667 v 5.891667 m 2.64583,-5.891667 v 5.891667 m 2.64584,-5.891667 v 5.891667 m 2.64583,-5.891667 v 5.891667 m 2.64583,-5.891667 v 5.891667 m 2.64584,-5.891667 v 5.891667 m 2.64583,-5.891667 v 5.891667 m 2.64583,-5.891667 v 5.891667 m 2.64584,-5.891667 v 5.891667 m 2.64583,-5.891667 v 5.891667 m 2.64583,-5.891667 v 5.891667 m 2.64584,-5.891667 v 5.891667 m 2.64583,-5.891667 v 5.891667 m -63.5,-5.891667 h 64 m -64,2.645833 h 64 m -64,2.645834 h 64"
         style="fill:none;stroke:#000000;stroke-width:0.132292px"
         id="path1309" />
      <rect
         style="opacity:1;vector-effect:none;fill:#cb9c91;fill-opacity:0.58450706;stroke:#000000;stroke-width:0.60000002;stroke-linecap:round;stroke-linejoin:miter;stroke-miterlimit:4;stroke-dasharray:none;stroke-dashoffset:0;stroke-opacity:1"
         id="rect1206"
         width="63.543613"
         height="5.3582959"
         x="101.93246"
         y="46.125217" />
      <path
         d="m 101.76878,45.911712 v 5.644277 m 2.64582,-5.644277 v 5.644277 m 2.64584,-5.644277 v 5.644277 m 2.64583,-5.644277 v 5.644277 m 2.64583,-5.644277 v 5.666756 m 2.64584,-5.666756 v 5.666756 m 2.64583,-5.666756 v 5.666756 m 2.64583,-5.666756 v 5.666756 m 2.64584,-5.666756 v 5.666756 m 2.64583,-5.666756 v 5.666756 m 2.64583,-5.666756 v 5.666756 m 2.64584,-5.666756 v 5.666756 m 2.64583,-5.666756 v 5.666756 m 2.64583,-5.666756 v 5.666756 m 2.64584,-5.666756 v 5.666756 m 2.64583,-5.666756 v 5.666756 m 2.64583,-5.666756 v 5.616775 m 2.64584,-5.616775 v 5.616775 m 2.64583,-5.616775 v 5.616775 m 2.64583,-5.616775 v 5.591785 m 2.64584,-5.591785 v 5.666756 m 2.64583,-5.666756 v 5.591785 m 2.64583,-5.591785 v 5.670783 m 2.64584,-5.670783 v 5.414558 m -60.85416,-2.768725 h 63.50042 m -63.50042,2.645834 h 63.50042"
         style="fill:none;stroke:#000000;stroke-width:0.132292px"
         id="path1313" />
      <rect
         y="51.469791"
         x="101.95582"
         height="4.881289"
         width="63.449577"
         id="rect1375"
         style="opacity:1;vector-effect:none;fill:#cb9c91;fill-opacity:0.58450706;stroke:#000000;stroke-width:0.60000002;stroke-linecap:round;stroke-linejoin:miter;stroke-miterlimit:4;stroke-dasharray:none;stroke-dashoffset:0;stroke-opacity:1" />
      <path
         id="path1377"
         style="fill:none;stroke:#000000;stroke-width:0.132292px"
         d="m 101.76878,51.203382 v 5.644277 m 2.64582,-5.644277 v 5.644277 m 2.64584,-5.644277 v 5.644277 m 2.64583,-5.644277 v 5.644277 m 2.64583,-5.644277 v 5.666756 m 2.64584,-5.666756 v 5.666756 m 2.64583,-5.666756 v 5.666756 m 2.64583,-5.666756 v 5.666756 m 2.64584,-5.666756 v 5.666756 m 2.64583,-5.666756 v 5.666756 m 2.64583,-5.666756 v 5.666756 m 2.64584,-5.666756 v 5.666756 m 2.64583,-5.666756 v 5.666756 m 2.64583,-5.666756 v 5.666756 m 2.64584,-5.666756 v 5.666756 m 2.64583,-5.666756 v 5.666756 m 2.64583,-5.666756 v 5.616775 m 2.64584,-5.616775 v 5.616775 m 2.64583,-5.616775 v 5.616775 m 2.64583,-5.616775 v 5.591785 m 2.64584,-5.591785 v 5.666756 m 2.64583,-5.666756 v 5.591785 m 2.64583,-5.591785 v 5.670783 m 2.64584,-5.670783 v 5.414558 m -60.85416,-2.768725 h 63.50042 m -63.50042,2.645834 h 63.50042" />
      <rect
         style="opacity:1;vector-effect:none;fill:#cb9c91;fill-opacity:0.58450706;stroke:#000000;stroke-width:0.60000002;stroke-linecap:round;stroke-linejoin:miter;stroke-miterlimit:4;stroke-dasharray:none;stroke-dashoffset:0;stroke-opacity:1"
         id="rect1381"
         width="63.556126"
         height="5.2758484"
         x="101.94647"
         y="56.411079" />
      <path
         d="m 101.76878,56.495052 v 5.644277 m 2.64582,-5.644277 v 5.644277 m 2.64584,-5.644277 v 5.644277 m 2.64583,-5.644277 v 5.644277 m 2.64583,-5.644277 v 5.666756 m 2.64584,-5.666756 v 5.666756 m 2.64583,-5.666756 v 5.666756 m 2.64583,-5.666756 v 5.666756 m 2.64584,-5.666756 v 5.666756 m 2.64583,-5.666756 v 5.666756 m 2.64583,-5.666756 v 5.666756 m 2.64584,-5.666756 v 5.666756 m 2.64583,-5.666756 v 5.666756 m 2.64583,-5.666756 v 5.666756 m 2.64584,-5.666756 v 5.666756 m 2.64583,-5.666756 v 5.666756 m 2.64583,-5.666756 v 5.616775 m 2.64584,-5.616775 v 5.616775 m 2.64583,-5.616775 v 5.616775 m 2.64583,-5.616775 v 5.591785 m 2.64584,-5.591785 v 5.666756 m 2.64583,-5.666756 v 5.591785 m 2.64583,-5.591785 v 5.670783 m 2.64584,-5.670783 v 5.414558 m -60.85416,-2.768725 h 63.50042 m -63.50042,2.645834 h 63.50042"
         style="fill:none;stroke:#000000;stroke-width:0.132292px"
         id="path1383" />
    </g>
    <text
       id="text1417"
       y="44.228504"
       x="32.547626"
       style="font-style:normal;font-weight:normal;font-size:10.58333302px;line-height:125%;font-family:sans-serif;letter-spacing:0px;word-spacing:0px;fill:#000000;fill-opacity:1;stroke:none;stroke-width:0.26458332px;stroke-linecap:butt;stroke-linejoin:miter;stroke-opacity:1"
       xml:space="preserve"><tspan
         style="font-size:4.23333311px;stroke-width:0.26458332px"
         y="44.228504"
         x="32.547626"
         id="tspan1415">6 workers (vector length=1)</tspan></text>
    <text
       xml:space="preserve"
       style="font-style:normal;font-weight:normal;font-size:10.58333302px;line-height:125%;font-family:sans-serif;letter-spacing:0px;word-spacing:0px;fill:#000000;fill-opacity:1;stroke:none;stroke-width:0.26458332px;stroke-linecap:butt;stroke-linejoin:miter;stroke-opacity:1"
       x="105.32894"
       y="44.228504"
       id="text1421"><tspan
         id="tspan1419"
         x="105.32894"
         y="44.228504"
         style="font-size:4.23333311px;stroke-width:0.26458332px">3 workers (vector length=48)</tspan></text>
    <text
       id="text1425"
       y="14.611887"
       x="106.51662"
       style="font-style:normal;font-weight:normal;font-size:10.58333302px;line-height:125%;font-family:sans-serif;letter-spacing:0px;word-spacing:0px;fill:#000000;fill-opacity:1;stroke:none;stroke-width:0.26458332px;stroke-linecap:butt;stroke-linejoin:miter;stroke-opacity:1"
       xml:space="preserve"><tspan
         style="font-size:4.23333311px;stroke-width:0.26458332px"
         y="14.611887"
         x="106.51662"
         id="tspan1423">1 worker (vector length=48)</tspan></text>
    <text
       xml:space="preserve"
       style="font-style:normal;font-weight:normal;font-size:10.58333302px;line-height:125%;font-family:sans-serif;letter-spacing:0px;word-spacing:0px;fill:#000000;fill-opacity:1;stroke:none;stroke-width:0.26458332px;stroke-linecap:butt;stroke-linejoin:miter;stroke-opacity:1"
       x="38.603394"
       y="15.098722"
       id="text1429"><tspan
         id="tspan1427"
         x="38.603394"
         y="15.098722"
         style="font-size:4.23333311px;stroke-width:0.26458332px">144 threads available</tspan></text>
  </g>
</svg>
